<?xml version="1.0" encoding="UTF-8"?>
<svg id="Livello_1" xmlns="http://www.w3.org/2000/svg" version="1.1" viewBox="0 0 566.9 310.3">
  <!-- Generator: Adobe Illustrator 29.7.0, SVG Export Plug-In . SVG Version: 2.1.1 Build 138)  -->
  <defs>
    <style>
      .st0 {
        fill: #fff;
      }
    </style>
  </defs>
  <path class="st0" d="M82.1,151.6l-47.8-21.9,13.5,21.9h34.3ZM17.5,102.3l11.1,18,3.8-50.2s-14.9,32.2-14.9,32.2ZM129.1,114.1l-33.1,37.5h20.8s12.3-37.5,12.3-37.5ZM33.4,125l55.9,25.6-6.1-64.6-49.7,38.9h-.1ZM36.8,62.5l-4.4,58.5,48.7-38.1-44.3-20.3h0ZM98.2,48.8l-57,11.6,42.6,19.5s14.4-31.1,14.4-31.1ZM129.9,101.1l-28.2-50.7-14.4,31.1s42.6,19.6,42.6,19.5h0ZM93,149.2l38.3-43.3-44.3-20.3,6,63.6h0ZM45.7,155.4L13.2,102.5l20.4-44.3,68.9-14.2,34,61.2-17,50.2H45.7ZM407,117.8l-10.9-39.4-11,39.4h22-.1ZM304.4,81.6c0-3.9-1-6.7-3.2-8.3-2.1-1.5-6.4-2.3-12.4-2.3h-15.1v20.8h15.9c5.6,0,9.5-.8,11.6-2.3s3.2-4.2,3.2-8M195.2,118.1l-10.9-39.3-11.1,39.3h22ZM553.4,43.9v111.5h-33.4l-30.5-51.5-5.4-9.2v60.7h-66.8l-7.8-28.3h0l-13.5,27.5-13.6-27.9h0l-8,28.7h-69c-.8-2.7-1.2-5-1.5-6.9-.3-2.1-.5-3.6-.5-4.7v-11.2c0-5.7-1-9.8-3.3-12.1-2.3-2.4-6-3.5-11.5-3.5h-15v38.4h-68.1l-7.7-27.8-13.4,27.4-13.7-28.3-8.1,28.6h-34.3l38.2-111.5h35.4l37.3,108.8V43.9h52.1c16.3,0,28,2.6,34.9,7.6,7,5,10.4,13.1,10.4,24.6s-1.5,12.4-4.4,16.9c-2.7,4.5-7.3,8-13.1,10.6,6,1.3,10.4,3.9,13.1,7.8,2.9,3.8,4.4,9.5,4.5,16.9l.6,15.6v.3c.1,4.5,1.2,6.8,3.2,7h1l36.7-107.2h35.3l37.2,108.4V43.9h33.2l35.9,61v-61h33.6ZM365,191.4c-.2,2.2-.8,3.8-1.6,4.8-1.2,1.5-2.9,2.2-5.1,2.2s-3.9-.7-5.1-2.2-1.8-4.2-1.8-8.2.5-5.6,1.5-7.1c1.3-1.9,3.1-2.9,5.4-3,2.3.1,4.1,1.1,5.4,3,.4.6.7,1.2.9,2h11.3c-.7-3.5-2.1-6.4-4.3-8.6-3.1-3.2-7.6-4.8-13.3-4.8s-10.2,1.6-13.3,4.8c-3.1,3.2-4.8,7.8-4.8,13.7s.9,8.1,2.7,11c1.8,2.9,3.9,4.9,6.4,6,2.4,1.1,5.3,1.7,9,1.7s6.6-.6,9-1.7c2.5-1.1,4.6-3.1,6.4-6,1.3-2.1,2.2-4.7,2.5-7.6h-11.2ZM404,170.1v21.5c0,3.4-2.6,6.4-6.2,6.4s-6.1-3-6.1-6.4v-21.5h-11.1v21.5c0,9.3,8.7,15.3,17.3,15.3s17.3-6,17.3-15.3v-21.5h-11.2ZM445.4,191.4c-.3,2.2-.8,3.8-1.6,4.8-1.2,1.5-2.9,2.2-5.1,2.2s-3.9-.7-5.1-2.2-1.8-4.2-1.8-8.2.5-5.6,1.5-7.1c1.3-1.9,3.1-2.9,5.4-3,2.3.1,4.1,1.1,5.4,3,.4.6.7,1.2.9,2h11.3c-.7-3.5-2.1-6.4-4.3-8.6-3.1-3.2-7.6-4.8-13.3-4.8s-10.2,1.6-13.3,4.8c-3.1,3.2-4.7,7.8-4.7,13.7s.9,8.1,2.7,11c1.8,2.9,3.9,4.9,6.4,6,2.4,1.1,5.3,1.7,9,1.7s6.6-.6,9-1.7c2.5-1.1,4.6-3.1,6.4-6,1.4-2.1,2.2-4.7,2.5-7.7h-11.3ZM462.1,206.1h11.1v-36h-11.1v36ZM505.2,170.1v19.9l-13.5-19.9h-10.4v36h10.5v-19.8l13.5,19.8h10.5v-36h-10.6ZM552.9,170.1v7.7h-18.7v5.7h17.3v7.3h-17.3v7.1h19.2v8.2h-30.3v-36h29.8Z"/>
  <g>
    <path class="st0" d="M131.6,260c.7,1,1.5,1.7,2.6,2.2,1,.5,2.1.7,3.2.7s1.2-.1,1.9-.3,1.2-.5,1.7-.9.9-.9,1.3-1.4c.3-.6.5-1.2.5-2s-.3-1.9-1-2.4c-.7-.6-1.5-1-2.5-1.4s-2.1-.7-3.2-1.1c-1.2-.3-2.2-.8-3.2-1.4s-1.8-1.4-2.5-2.5c-.7-1-1-2.4-1-4.2s.2-1.6.5-2.5.9-1.7,1.6-2.4c.7-.7,1.7-1.4,2.9-1.9s2.6-.8,4.2-.8,2.9.2,4.3.6c1.4.4,2.5,1.2,3.6,2.5l-3,2.7c-.5-.7-1.1-1.3-2-1.7s-1.8-.6-2.9-.6-1.9.1-2.6.4c-.7.3-1.2.6-1.6,1-.4.4-.7.9-.9,1.4s-.2.9-.2,1.3c0,1.1.3,2,1,2.6s1.5,1.1,2.5,1.5,2.1.7,3.2,1,2.2.7,3.2,1.3,1.8,1.3,2.5,2.2,1,2.2,1,3.8-.2,2.5-.8,3.5-1.2,1.9-2,2.6-1.8,1.3-3,1.6c-1.1.4-2.4.6-3.7.6s-3.4-.3-4.9-.9-2.8-1.6-3.7-2.8l3-2.6h0v.3Z"/>
    <path class="st0" d="M165.8,241.9h-8.7v-3.4h21.2v3.4h-8.7v23.7h-3.7v-23.7h-.1Z"/>
    <path class="st0" d="M202.5,266.3c-2.1,0-4-.4-5.7-1.1s-3.2-1.7-4.5-3-2.2-2.8-2.9-4.5-1.1-3.6-1.1-5.6.4-3.9,1.1-5.6,1.7-3.2,2.9-4.5,2.7-2.3,4.5-3,3.6-1.1,5.7-1.1,4,.4,5.7,1.1c1.7.7,3.2,1.7,4.5,3s2.2,2.8,2.9,4.5,1.1,3.6,1.1,5.6-.4,3.9-1.1,5.6c-.7,1.7-1.7,3.2-2.9,4.5s-2.7,2.3-4.5,3-3.6,1.1-5.7,1.1ZM202.5,262.9c1.6,0,3-.3,4.2-.9s2.3-1.4,3.2-2.3c.9-1,1.6-2.1,2.1-3.4s.7-2.7.7-4.2-.2-2.9-.7-4.2-1.2-2.5-2.1-3.4c-.9-1-2-1.7-3.2-2.3s-2.7-.9-4.2-.9-3,.3-4.2.9c-1.2.6-2.3,1.4-3.2,2.3-.9,1-1.6,2.1-2.1,3.4-.5,1.3-.7,2.7-.7,4.2s.2,2.9.7,4.2c.5,1.3,1.2,2.5,2.1,3.4.9,1,2,1.7,3.2,2.3,1.2.6,2.7.9,4.2.9Z"/>
    <path class="st0" d="M229.9,238.5h9.6c1.7,0,3.2.2,4.3.7s2,1.1,2.7,1.8c.6.7,1.1,1.6,1.4,2.4s.4,1.8.4,2.6-.1,1.7-.5,2.5c-.3.8-.8,1.5-1.3,2.2-.6.6-1.3,1.2-2.1,1.6s-1.8.7-2.8.8l7.7,12.4h-4.6l-6.9-12h-4.1v12h-3.7v-27.1h0ZM233.5,250.4h4.8c.7,0,1.4,0,2.1-.2.7-.1,1.3-.3,1.9-.6.6-.3,1-.8,1.3-1.3s.5-1.3.5-2.2-.2-1.7-.5-2.2-.8-1-1.3-1.3c-.6-.3-1.2-.5-1.9-.6s-1.4-.2-2.1-.2h-4.8v8.7h0Z"/>
    <path class="st0" d="M261.2,238.5h17.5v3.4h-13.8v8.1h12.9v3.4h-12.9v8.7h14.5v3.5h-18.2v-27.1Z"/>
    <path class="st0" d="M307.6,238.5h9.1c1.3,0,2.6.1,3.8.4,1.2.3,2.3.7,3.2,1.3s1.6,1.4,2.2,2.4c.5,1,.8,2.3.8,3.8s-.3,3.1-.9,4.1-1.4,1.9-2.4,2.4-2.1,1-3.5,1.2-2.7.3-4.1.3h-3.5v11.2h-4.8v-27.1h0ZM315.4,250.3h2.1c.7,0,1.4-.2,2-.5s1.1-.6,1.5-1.1.6-1.2.6-2.1-.2-1.5-.5-2c-.4-.5-.8-.9-1.4-1.1-.6-.3-1.2-.4-1.9-.5s-1.4-.1-2-.1h-3.5v7.6h2.9l.2-.2Z"/>
    <path class="st0" d="M338.9,238.5h4.8v27.1h-4.8v-27.1Z"/>
    <path class="st0" d="M366.4,238.5h4.2l11.7,27.1h-5.5l-2.5-6.2h-11.8l-2.5,6.2h-5.4l11.8-27.1h0ZM372.5,255.3l-4.2-11-4.3,11h8.5Z"/>
    <path class="st0" d="M411.9,244.9c-1-1.1-2-1.8-2.9-2.1-.9-.4-1.9-.5-2.8-.5-1.4,0-2.7.2-3.8.8-1.1.5-2.1,1.2-2.9,2.1s-1.5,1.9-1.9,3.1-.7,2.4-.7,3.8.2,2.8.7,4c.5,1.2,1.1,2.3,1.9,3.2s1.8,1.6,2.9,2.1,2.4.8,3.8.8,2.2-.3,3.2-.8,2-1.4,2.9-2.5l4,2.8c-1.2,1.7-2.7,2.9-4.5,3.7s-3.6,1.1-5.6,1.1-4-.3-5.8-1-3.3-1.6-4.5-2.9c-1.3-1.2-2.3-2.7-3-4.5-.7-1.7-1.1-3.7-1.1-5.8s.4-4.1,1.1-5.9c.7-1.8,1.7-3.3,3-4.5s2.8-2.2,4.5-2.9c1.8-.7,3.7-1,5.8-1s3.5.3,5.1,1,3,1.8,4.4,3.3l-3.8,2.8h0v-.2Z"/>
    <path class="st0" d="M427.4,238.5h18v4.4h-13.1v6.7h12.5v4.4h-12.5v7.4h13.8v4.4h-18.7v-27.1h0v-.2Z"/>
    <path class="st0" d="M458.8,238.5h6.4l13.1,20.2h0v-20.2h4.8v27.1h-6.1l-13.4-20.8h0v20.8h-4.8v-27.1h0Z"/>
    <path class="st0" d="M495.5,261.3l14.5-18.4h-14.3v-4.4h20.3v4.4l-14.6,18.4h14.8v4.4h-20.7v-4.4h0Z"/>
    <path class="st0" d="M537.4,238.5h4.2l11.7,27.1h-5.5l-2.5-6.2h-11.8l-2.5,6.2h-5.4l11.8-27.1h0ZM543.5,255.3l-4.2-11-4.3,11h8.5Z"/>
  </g>
  <rect class="st0" x="128.6" y="221" width="425.2" height="3.2"/>
</svg>